# xmcd CD database file
#
# Track frame offsets:
#	150
#	18860
#	41243
#	53941
#	72606
#
# Disc length: 1257 seconds
#
# Revision: 0
# Processed by: cddbd v1.5.1PL0 Copyright (c) Steve Scherf et al.
# Submitted via: CDex 1.51
#
DISCID=4404e705
DTITLE=ALI PROJECT - 星月夜
DYEAR=2004
DGENRE=Gothic Rock
TTITLE0=「星月夜」Original Full Mix
TTITLE1=「星月夜」Concert Track〜月光ソワレ
TTITLE2=「星月夜」Music
TTITLE3=「星月夜」Original Mix Play Back
TTITLE4=Only Love Song
EXTD=YEAR: 2004
EXTT0=
EXTT1=
EXTT2=
EXTT3=
EXTT4=
PLAYORDER=
